<?xml version="1.0" standalone="no"?>
<!DOCTYPE svg PUBLIC "-//W3C//DTD SVG 20010904//EN"
 "http://www.w3.org/TR/2001/REC-SVG-20010904/DTD/svg10.dtd">
<svg version="1.0" xmlns="http://www.w3.org/2000/svg"
 width="500.000000pt" height="500.000000pt" viewBox="0 0 500.000000 500.000000"
 preserveAspectRatio="xMidYMid meet">

<g transform="translate(0.000000,500.000000) scale(0.100000,-0.100000)"
fill="#000000" stroke="none">
<path d="M3232 2794 c-28 -19 -30 -74 -4 -97 25 -22 75 -21 95 1 25 27 22 78
-5 96 -12 9 -32 16 -43 16 -11 0 -31 -7 -43 -16z"/>
<path d="M1640 2675 l0 -45 55 0 55 0 0 -175 0 -175 65 0 65 0 0 175 0 175 50
0 c45 0 50 2 50 23 0 12 3 32 6 45 l6 22 -176 0 -176 0 0 -45z"/>
<path d="M2988 2693 c-13 -3 -18 -15 -18 -39 0 -27 -4 -34 -20 -34 -17 0 -20
-7 -20 -40 0 -33 3 -40 20 -40 18 0 20 -7 20 -77 0 -43 5 -95 11 -116 18 -65
96 -94 178 -66 17 6 31 13 31 15 0 2 -8 19 -17 39 -13 26 -22 35 -35 31 -35
-9 -49 21 -46 98 l3 71 31 3 c26 3 33 8 38 34 9 47 9 48 -34 48 l-40 0 0 40 0
40 -42 -1 c-24 -1 -51 -3 -60 -6z"/>
<path d="M2165 2597 l-34 -34 -3 26 c-3 24 -7 26 -55 29 l-53 3 0 -170 0 -171
60 0 60 0 0 86 c0 111 16 144 71 144 24 0 27 5 33 46 9 71 8 74 -20 74 -16 0
-39 -13 -59 -33z"/>
<path d="M2694 2616 c-102 -45 -79 -160 41 -204 37 -13 50 -23 50 -37 0 -26
-33 -30 -81 -10 -36 15 -38 14 -61 -7 -31 -29 -29 -44 8 -64 49 -25 131 -30
183 -10 56 21 76 45 83 93 7 52 -23 86 -102 116 -65 25 -81 53 -30 51 17 0 42
-4 57 -8 23 -7 29 -4 42 23 9 16 16 32 16 34 0 3 -18 12 -40 21 -49 19 -124
20 -166 2z"/>
<path d="M2280 2470 c0 -147 1 -152 25 -175 30 -31 87 -33 133 -5 28 17 33 18
38 5 4 -11 21 -15 55 -15 l49 0 0 170 0 170 -60 0 -60 0 0 -119 c0 -123 -9
-151 -45 -137 -12 4 -15 28 -15 131 l0 125 -60 0 -60 0 0 -150z"/>
<path d="M3210 2450 l0 -170 65 0 65 0 0 170 0 170 -65 0 -65 0 0 -170z"/>
</g>
</svg>
